<?xml version="1.0" encoding="utf-8"?>
<!-- Generator: Adobe Illustrator 23.0.5, SVG Export Plug-In . SVG Version: 6.00 Build 0)  -->
<svg version="1.1" id="Layer_1" xmlns="http://www.w3.org/2000/svg" xmlns:xlink="http://www.w3.org/1999/xlink" x="0px" y="0px"
	 viewBox="0 0 1125 258" style="enable-background:new 0 0 1125 258;" xml:space="preserve">
<style type="text/css">
	.st0{fill:#392115;}
	.st1{fill:#D3B06E;}
	.st2{font-family:'Gotham-Medium';}
	.st3{font-size:23.4691px;}
	.st4{fill:#FFFFFF;}
	.st5{fill-rule:evenodd;clip-rule:evenodd;fill:#D3B06E;}
</style>
<g>
	<rect x="1.5" y="-0.02" class="st0" width="1125" height="258"/>
	<path class="st1" d="M861.34,151c-0.69-0.21-1.17-0.7-1.65-1.2c-2.93-3.05-5.86-6.1-8.79-9.15c-0.1-0.1-0.2-0.21-0.3-0.32
		c-4.36,2.89-9.05,3.7-14.06,2.21c-3.71-1.1-6.65-3.33-8.79-6.55c-4.62-6.96-3.28-16.11,3.17-21.47c6.13-5.1,14.77-4.97,20.78,0.05
		c2.23,1.86,3.84,4.17,4.85,6.89c1,2.71,1.23,5.51,0.73,8.35c-0.5,2.86-1.7,5.4-3.56,7.64c0.2,0.21,0.37,0.4,0.55,0.58
		c2.96,3.08,5.92,6.15,8.88,9.23c0.92,0.96,1,2.23,0.13,3.08c-0.3,0.3-0.75,0.45-1.13,0.66C861.86,151,861.6,151,861.34,151z
		 M841.27,115c-6.6,0-11.99,5.38-12,11.99c-0.02,6.61,5.43,12.06,12.02,12.02c6.64-0.04,11.99-5.4,11.98-12.01
		C853.25,120.38,847.87,115,841.27,115z"/>
	<text transform="matrix(1 0 0 1 947.5859 124.0215)"><tspan x="0" y="0" class="st1 st2 st3">Today’s</tspan><tspan x="0" y="28.16" class="st1 st2 st3">Gold Rate</tspan></text>
	<g>
		<path class="st4" d="M367.2,126.36c-4.31-4.4-6.46-10.05-6.46-17.05c0-4.63,1.02-8.92,3.06-12.98c1.93-4.18,4.76-7.23,8.38-9.26
			c3.51-1.92,7.48-2.94,11.78-2.94c3.51,0,6.68,0.68,9.63,2.15c2.72,1.35,4.87,2.94,6.46,4.85l0.23,0.9l-2.38,2.26
			c-1.25-1.81-2.04-2.71-2.95-3.39c-2.95-2.26-6.35-3.39-9.97-3.39c-4.53,0-8.04,1.81-10.76,5.42c-2.61,3.61-3.97,9.03-3.97,16.14
			c0,6.77,1.47,11.74,4.42,15.24c2.95,3.39,6.46,5.08,10.88,5.08c2.27,0,4.65-0.56,7.14-1.69c1.93-0.9,3.51-2.26,5.44-5.08l2.61,2.6
			c-4.65,5.19-9.97,7.68-16.54,7.68C377.17,132.91,371.61,130.65,367.2,126.36z"/>
		<polygon class="st4" points="417.05,132.91 417.05,119.92 417.05,96.78 417.05,84.02 425.43,84.02 425.43,129.52 451.49,129.52 
			451.49,132.79 417.05,132.79 		"/>
		<path class="st4" d="M484.46,95.43l-6.8,16.93h13.82L484.46,95.43z M499.87,132.91c-2.72-6.66-3.74-9.14-3.74-9.14l-3.4-8.13
			h-16.2l-6.68,17.39h-4.19l20.28-48.77h2.38l20.73,48.77h-9.18V132.91z"/>
		<path class="st4" d="M613.97,126.47c-1.59,1.92-3.85,3.5-6.57,4.63c-2.83,1.13-6.01,1.81-9.63,1.81c-4.31,0-7.93-0.68-10.88-2.26
			c-3.06-1.47-5.1-3.39-6.46-5.87c-1.36-2.37-2.15-5.53-1.81-9.48l0.34-4.74V96.1V84.02h8.38V96.1v14.68c0,2.48,0,4.74,0.11,6.44
			c0.11,1.81,0.11,3.16,0.34,4.18c0.34,1.92,1.36,3.61,3.4,5.08c2.04,1.47,4.76,2.26,8.27,2.26c2.72,0,5.21-0.56,7.48-1.47
			c2.27-1.02,3.85-2.26,4.87-3.73c1.13-1.47,1.81-3.05,2.15-4.52c0.23-1.69,0.68-4.29,0.68-7.9V95.31V84.02h3.17v11.85v15.47
			c0,3.95-0.34,7-0.68,8.92C616.69,122.52,615.44,124.55,613.97,126.47z"/>
		<path class="st4" d="M649.78,132.8c-4.65-0.45-10.54-4.06-13.6-8.92l2.38-2.6c4.08,5.76,6.57,7.56,10.99,8.35
			c2.95,0.45,5.21-0.23,7.02-1.69c1.81-1.47,2.72-3.27,2.95-5.19c0.23-2.03-0.23-3.84-1.47-5.31c-1.25-1.58-3.74-3.39-7.59-5.53
			c-3.51-1.92-6.12-3.61-7.82-4.97c-1.81-1.47-3.17-3.16-4.08-5.31c-0.91-2.15-1.25-4.29-1.02-6.44c0.34-3.5,1.93-6.21,4.53-8.24
			c2.61-2.03,5.78-2.82,9.4-2.37c1.93,0.23,3.85,0.68,5.55,1.58c1.81,0.9,3.4,2.48,5.55,5.31l-2.72,2.26
			c-0.91-1.35-1.25-1.92-1.7-2.37c-1.81-2.03-3.97-3.16-6.57-3.5c-2.61-0.23-4.31,0.23-5.55,1.35c-1.25,1.24-1.93,2.6-2.15,4.06
			c-0.23,1.81,0.34,3.5,1.59,4.97c1.36,1.47,3.85,3.39,7.7,5.64c3.74,2.15,6.46,3.84,8.04,5.08c1.81,1.35,3.06,3.05,3.97,5.08
			c0.91,2.15,1.25,4.52,1.02,7.11c-0.45,3.95-2.15,7.23-5.21,9.48C657.93,132.91,654.31,133.36,649.78,132.8z"/>
		<g>
			<path class="st5" d="M74.26,129.17c0,24.61,57.31,44.59,128.26,44.59c56.94,0,105.3-12.95,121.91-30.9l-35.66-7.4
				c-9.52,16.47-52.83,29.05-105.11,29.05c-59,0-106.98-16.1-106.98-35.89c0-19.8,47.79-35.89,106.98-35.89
				c52.27,0,95.77,12.58,105.11,29.05l0.19,0.37l35.47-7.22c-16.62-17.95-64.97-30.9-121.91-30.9
				C131.57,84.58,74.26,104.56,74.26,129.17z"/>
			<path class="st4" d="M537.26,87.64l-2.15-0.11v19.64h4.65c0.79,0,1.59-0.23,2.38-0.34c0.79-0.23,1.47-0.45,2.15-0.68
				c1.13-0.34,2.15-1.13,2.95-1.92c0.68-0.68,1.36-1.58,1.81-2.71c0.34-1.13,0.68-2.6,0.68-4.4c0-3.16-0.79-5.42-2.27-7.23
				C546.1,88.31,542.82,87.64,537.26,87.64z M549.05,110.22c1.59,1.13,3.51,3.05,5.78,5.98c0,0,3.51,4.74,8.38,16.6h-7.25
				c-0.68-2.71-7.25-22.35-19.6-22.35l-1.13-0.11v9.14v13.32h-8.38v-13.32v-22.8V84.02h11.1c4.42,0,8.16,0.23,10.99,1.13
				c2.83,0.9,5.33,2.03,7.14,4.06c1.81,2.03,2.72,4.4,2.72,7.23c0,3.27-1.13,6.1-3.63,8.35c-1.93,1.81-4.53,3.39-7.93,4.18
				C547.91,109.42,548.48,109.76,549.05,110.22z"/>
			<g>
				<path class="st4" d="M371.37,172.89h-8.75v-13.01h1.76v11.31h6.99V172.89z"/>
				<path class="st4" d="M379.37,172.89v-13.01h1.76v13.01H379.37z"/>
				<path class="st4" d="M392.3,172.89h-1.76v-13.01h7.96v1.71h-6.2v3.86h5.41v1.71h-5.41V172.89z"/>
				<path class="st4" d="M414.86,172.89h-8.1v-13.01h8.1v1.67h-6.34v3.89h5.86v1.67h-5.86v4.1h6.34V172.89z"/>
				<path class="st4" d="M426.89,173.1c-0.96,0-1.84-0.23-2.63-0.7c-0.79-0.46-1.39-1.12-1.81-1.98l1.3-1.07
					c0.7,1.39,1.74,2.08,3.12,2.08c0.73,0,1.31-0.19,1.74-0.56c0.43-0.38,0.65-0.84,0.65-1.41c0-0.69-0.45-1.3-1.36-1.81
					c-0.16-0.08-0.61-0.29-1.34-0.63c-0.6-0.27-1.09-0.52-1.46-0.74c-1.3-0.82-1.96-1.85-1.96-3.1c0-1,0.36-1.83,1.07-2.5
					c0.72-0.68,1.67-1.02,2.85-1.02c1.62,0,2.89,0.64,3.82,1.92l-1.18,1.13c-0.7-0.93-1.58-1.39-2.62-1.39
					c-0.6,0-1.09,0.16-1.48,0.48c-0.39,0.32-0.58,0.75-0.58,1.28c0,0.68,0.37,1.24,1.11,1.67c0.3,0.19,0.81,0.45,1.51,0.78
					c0.74,0.35,1.29,0.63,1.64,0.83c1.26,0.76,1.88,1.77,1.88,3.03c0,1.12-0.41,2.01-1.23,2.69
					C429.13,172.76,428.11,173.1,426.89,173.1z"/>
				<path class="st4" d="M442,172.89v-11.31h-3.86v-1.71h9.47v1.71h-3.86v11.31H442z"/>
				<path class="st4" d="M462.99,159.88h1.95l-4.46,8.33v4.68h-1.76v-4.68l-4.4-8.33h1.95l3.33,6.59L462.99,159.88z"/>
				<path class="st4" d="M481.76,172.89h-8.75v-13.01h1.76v11.31h6.99V172.89z"/>
				<path class="st4" d="M497.86,172.89h-8.1v-13.01h8.1v1.67h-6.34v3.89h5.86v1.67h-5.86v4.1h6.34V172.89z"/>
				<path class="st4" d="M518.8,173.1c-1.51,0-2.76-0.56-3.73-1.67l1.07-1.29c0.71,0.86,1.59,1.29,2.66,1.29
					c0.79,0,1.41-0.25,1.88-0.75c0.47-0.5,0.71-1.2,0.71-2.11v-8.7h1.76v8.79c0,1.41-0.4,2.5-1.22,3.28
					C521.15,172.72,520.1,173.1,518.8,173.1z"/>
				<path class="st4" d="M540.53,172.89h-8.1v-13.01h8.1v1.67h-6.34v3.89h5.86v1.67h-5.86v4.1h6.34V172.89z"/>
				<path class="st4" d="M553.3,172.89h-0.99l-4.47-13.01h1.87l3.14,9.53l3.45-9.53h0.79l3.54,9.53l3.08-9.53h1.85l-4.44,13.01
					h-0.97l-3.43-9.72L553.3,172.89z"/>
				<path class="st4" d="M581.64,172.89h-8.1v-13.01h8.1v1.67h-6.34v3.89h5.86v1.67h-5.86v4.1h6.34V172.89z"/>
				<path class="st4" d="M599.14,172.89h-8.75v-13.01h1.76v11.31h6.99V172.89z"/>
				<path class="st4" d="M615.89,172.89h-8.75v-13.01h1.76v11.31h6.99V172.89z"/>
				<path class="st4" d="M631.99,172.89h-8.1v-13.01h8.1v1.67h-6.34v3.89h5.86v1.67h-5.86v4.1h6.34V172.89z"/>
				<path class="st4" d="M649.85,172.89h-2.17l-3.38-5.28h-1.8v5.28h-1.76v-13.01h4.42c1.3,0,2.31,0.39,3.01,1.16
					c0.72,0.75,1.07,1.65,1.07,2.71c0,0.88-0.27,1.67-0.8,2.36c-0.53,0.69-1.28,1.14-2.23,1.36L649.85,172.89z M645.18,161.55h-2.68
					v4.4h2.32c0.85,0,1.49-0.21,1.95-0.62c0.45-0.41,0.68-0.95,0.68-1.6c0-0.65-0.2-1.17-0.6-1.58
					C646.45,161.75,645.9,161.55,645.18,161.55z"/>
				<path class="st4" d="M665.05,159.88H667l-4.46,8.33v4.68h-1.76v-4.68l-4.4-8.33h1.95l3.33,6.59L665.05,159.88z"/>
			</g>
		</g>
	</g>
</g>
</svg>
